<svg id="SvgjsSvg1001" width="288" height="288" xmlns="http://www.w3.org/2000/svg" version="1.1" xmlns:xlink="http://www.w3.org/1999/xlink" xmlns:svgjs="http://svgjs.com/svgjs"><defs id="SvgjsDefs1002"></defs><g id="SvgjsG1008" transform="matrix(1,0,0,1,0,0)"><svg xmlns="http://www.w3.org/2000/svg" enable-background="new 0 0 512 512" viewBox="0 0 512 512" width="288" height="288"><path d="M486.4,110.933H25.6c-14.134,0-25.6,11.466-25.6,25.6v238.933c0,14.134,11.466,25.6,25.6,25.6h460.8
				c14.134,0,25.6-11.466,25.6-25.6V136.533C512,122.4,500.534,110.933,486.4,110.933z M494.933,375.467
				c0,4.708-3.825,8.533-8.533,8.533H25.6c-4.708,0-8.533-3.825-8.533-8.533V136.533c0-4.708,3.825-8.533,8.533-8.533h460.8
				c4.708,0,8.533,3.825,8.533,8.533V375.467z" fill="#5b5765" class="color000 svgShape"></path><path d="M452.267,162.133H59.733c-4.713,0-8.533,3.82-8.533,8.533v128c0,4.713,3.82,8.533,8.533,8.533h20.768l23.114,38.524
				c1.542,2.57,4.32,4.143,7.317,4.143h290.133c2.997,0,5.775-1.573,7.317-4.143l23.114-38.524h20.768
				c4.713,0,8.533-3.82,8.533-8.533v-128C460.8,165.954,456.979,162.133,452.267,162.133z M443.733,290.133h-17.067
				c-2.997,0-5.775,1.573-7.317,4.143L396.235,332.8h-280.47l-23.114-38.524c-1.542-2.57-4.32-4.143-7.317-4.143H68.267V179.2
				h375.467V290.133z" fill="#5b5765" class="color000 svgShape"></path><path d="M110.933,273.068h25.6v25.6c0,4.713,3.82,8.533,8.533,8.533H179.2c4.713,0,8.533-3.82,8.533-8.533v-25.6H204.8v25.6
				c0,4.713,3.821,8.533,8.533,8.533h34.133c4.713,0,8.533-3.82,8.533-8.533v-25.6h17.067v25.6c0,4.713,3.82,8.533,8.533,8.533
				h34.133c4.713,0,8.533-3.82,8.533-8.533v-25.6h17.067v25.6c0,4.713,3.82,8.533,8.533,8.533H384c4.713,0,8.533-3.82,8.533-8.533
				v-25.6h6.997c4.713,0,8.533-3.82,8.533-8.533v-25.6c0-4.713-3.82-8.533-8.533-8.533h-32.597v-25.6
				c0-4.713-3.82-8.533-8.533-8.533h-34.133c-4.713,0-8.533,3.82-8.533,8.533v25.6h-17.067v-25.6c0-4.713-3.82-8.533-8.533-8.533
				H256c-4.713,0-8.533,3.82-8.533,8.533v25.6H230.4v-25.6c0-4.713-3.82-8.533-8.533-8.533h-34.133c-4.713,0-8.533,3.82-8.533,8.533
				v25.6h-17.067v-25.6c0-4.713-3.821-8.533-8.533-8.533h-34.133c-4.713,0-8.533,3.82-8.533,8.533v25.6
				c-4.713,0-8.533,3.82-8.533,8.533v25.6C102.4,269.248,106.221,273.068,110.933,273.068z M170.667,290.135H153.6v-17.067h17.067
				V290.135z M238.933,290.135h-17.067v-17.067h17.067V290.135z M307.2,290.135h-17.067v-17.067H307.2V290.135z M375.467,290.135
				H358.4v-17.067h17.067V290.135z M390.997,256.002H384h-34.133h-34.133H281.6h-34.133h-34.133H179.2h-34.133h-25.6v-8.533H153.6
				h34.133h34.133H256h34.133h34.133H358.4h32.597V256.002z M332.8,213.335h17.067v17.067H332.8V213.335z M264.533,213.335H281.6
				v17.067h-17.067V213.335z M196.267,213.335h17.067v17.067h-17.067V213.335z M128,213.335h17.067v17.067H128V213.335z" fill="#5b5765" class="color000 svgShape"></path></svg></g></svg>